 <svg  version="1.0" xmlns="http://www.w3.org/2000/svg"  width="178.000000pt" height="102.000000pt" viewBox="0 0 178.000000 102.000000"  preserveAspectRatio="xMidYMid meet">  <g transform="translate(0.000000,102.000000) scale(0.100000,-0.100000)" fill="#e59f9f" stroke="none"> <path d="M1413 750 c-30 -12 -67 -65 -71 -100 -4 -41 35 -80 80 -80 96 0 162 96 110 160 -19 24 -84 35 -119 20z m88 -42 c22 -24 23 -32 9 -58 -14 -27 -50 -44 -85 -42 -51 4 -61 47 -20 88 15 15 32 23 41 20 9 -3 12 -1 9 4 -12 20 28 10 46 -12z"/> <path d="M1068 583 c-2 -16 -8 -27 -15 -25 -7 1 -13 -7 -13 -18 0 -11 5 -20 11 -20 7 0 9 -9 5 -23 -5 -21 -2 -23 29 -23 30 0 35 3 35 23 0 19 5 23 30 23 23 0 30 4 30 20 0 17 -5 19 -25 14 -23 -6 -25 -4 -19 25 6 30 5 31 -29 31 -31 0 -36 -3 -39 -27z"/> <path d="M288 553 c-10 -2 -18 -12 -18 -22 0 -14 8 -18 41 -17 56 1 62 -20 8 -27 -54 -7 -94 -45 -85 -80 7 -31 43 -41 73 -21 13 8 23 10 23 4 0 -5 16 -10 35 -10 28 0 35 4 35 19 0 11 3 26 6 35 10 25 -51 21 -77 -5 -15 -15 -24 -18 -32 -10 -20 20 12 41 64 41 39 0 49 4 54 20 19 58 -45 95 -127 73z"/> <path d="M505 543 c-33 -17 -64 -51 -65 -70 0 -8 13 -13 33 -13 26 0 36 6 45 25 9 20 19 25 46 25 22 0 36 6 40 17 13 34 -47 44 -99 16z"/> <path d="M669 553 c-10 -2 -19 -13 -22 -23 -4 -18 -1 -19 40 -13 36 5 45 3 41 -7 -2 -8 -20 -18 -39 -23 -52 -13 -63 -31 -14 -23 22 3 57 6 78 6 36 0 37 1 37 35 0 24 -6 37 -19 45 -20 10 -71 12 -102 3z"/> <path d="M928 544 c-16 -8 -28 -10 -28 -4 0 5 -16 10 -35 10 -30 0 -35 -3 -35 -24 0 -13 -3 -31 -6 -40 -11 -29 53 -20 81 12 20 22 26 24 34 13 5 -8 7 -20 4 -28 -4 -9 5 -13 31 -13 24 0 36 5 36 14 0 8 3 21 6 29 6 18 -21 47 -44 47 -9 -1 -29 -8 -44 -16z"/> <path d="M1254 550 c-20 -8 -64 -55 -64 -69 0 -3 45 -5 100 -3 108 4 117 9 82 52 -20 24 -80 34 -118 20z"/> <path d="M1473 540 c-17 -10 -37 -29 -43 -40 -12 -22 -11 -22 54 -15 64 7 65 7 59 -15 -6 -21 -10 -22 -64 -17 -51 4 -59 3 -59 -12 0 -30 30 -60 65 -67 66 -12 131 34 142 99 12 74 -79 113 -154 67z m112 -36 c11 -12 13 -20 6 -27 -7 -7 -18 -2 -35 16 -23 24 -23 27 -6 27 10 0 26 -7 35 -16z m-3 -52 c-7 -2 -9 -9 -6 -14 4 -6 2 -8 -3 -5 -6 4 -13 1 -16 -7 -3 -7 -17 -16 -31 -18 -14 -3 -23 -1 -20 3 3 5 12 9 20 9 9 0 12 5 8 12 -4 6 -3 8 4 4 6 -3 13 3 17 13 4 14 11 18 23 14 10 -4 12 -8 4 -11z"/> <path d="M1190 442 c0 -69 105 -88 167 -30 40 37 30 43 -72 43 -72 0 -95 -3 -95 -13z"/> <path d="M440 436 c0 -8 8 -24 18 -37 15 -18 28 -22 67 -21 28 0 51 6 56 14 16 25 9 35 -22 30 -22 -3 -34 0 -41 12 -11 20 -78 23 -78 2z"/> <path d="M617 443 c-16 -16 -6 -50 18 -61 21 -10 30 -9 50 4 16 10 25 12 25 5 0 -6 15 -11 34 -11 31 0 34 3 38 35 4 33 2 35 -24 35 -15 0 -37 -9 -48 -20 -22 -22 -45 -18 -36 6 4 10 -3 14 -23 14 -15 0 -31 -3 -34 -7z"/> <path d="M812 418 c-8 -32 -8 -33 26 -36 40 -4 37 -6 45 36 6 31 6 32 -28 32 -30 0 -35 -4 -43 -32z"/> <path d="M940 447 c0 -1 -4 -17 -9 -35 l-10 -32 39 0 c36 0 38 2 42 35 4 34 3 35 -29 35 -18 0 -33 -1 -33 -3z"/> <path d="M1049 448 c0 -2 -3 -15 -5 -31 -4 -22 0 -29 21 -37 30 -11 86 -1 92 17 2 6 -6 13 -19 15 -15 2 -23 9 -22 21 1 13 -6 17 -32 17 -19 0 -34 -1 -35 -2z"/> <path d="M1319 347 c-58 -39 -66 -131 -14 -155 60 -27 132 1 162 62 41 87 -62 151 -148 93z m117 -33 c17 -21 6 -50 -28 -79 -34 -29 -55 -31 -86 -9 -17 12 -21 21 -16 42 7 28 29 55 54 65 22 9 63 -2 76 -19z"/> </g> </svg> 